<mxfile host="app.diagrams.net" agent="Mozilla/5.0 (Macintosh; Intel Mac OS X 10_15_7) AppleWebKit/537.36 (KHTML, like Gecko) Chrome/131.0.0.0 Safari/537.36" version="25.0.3">
  <diagram name="Page-1" id="yx9NatM-q8bEOVtMpky8">
    <mxGraphModel dx="-220" dy="1999" grid="1" gridSize="10" guides="1" tooltips="1" connect="1" arrows="1" fold="1" page="1" pageScale="1" pageWidth="827" pageHeight="1169" background="none" math="0" shadow="0">
      <root>
        <mxCell id="0" />
        <mxCell id="1" parent="0" />
        <mxCell id="3wbWXxaWbpRCuTf0ScIF-73" style="edgeStyle=orthogonalEdgeStyle;rounded=0;orthogonalLoop=1;jettySize=auto;html=1;exitX=0.5;exitY=1;exitDx=0;exitDy=0;entryX=0.5;entryY=0;entryDx=0;entryDy=0;" parent="1" source="3wbWXxaWbpRCuTf0ScIF-2" target="3wbWXxaWbpRCuTf0ScIF-3" edge="1">
          <mxGeometry relative="1" as="geometry" />
        </mxCell>
        <mxCell id="3wbWXxaWbpRCuTf0ScIF-2" value="" style="ellipse;whiteSpace=wrap;html=1;aspect=fixed;labelBackgroundColor=default;" parent="1" vertex="1">
          <mxGeometry x="1980" y="20" width="110" height="110" as="geometry" />
        </mxCell>
        <mxCell id="3wbWXxaWbpRCuTf0ScIF-1" value="" style="triangle;whiteSpace=wrap;html=1;direction=south;fillColor=#000000;fontColor=#333333;strokeColor=#666666;" parent="1" vertex="1">
          <mxGeometry x="2010" y="35" width="50" height="80" as="geometry" />
        </mxCell>
        <mxCell id="3wbWXxaWbpRCuTf0ScIF-108" style="edgeStyle=orthogonalEdgeStyle;rounded=0;orthogonalLoop=1;jettySize=auto;html=1;exitX=1;exitY=0;exitDx=0;exitDy=0;startArrow=classic;startFill=1;endArrow=none;endFill=0;" parent="1" source="3wbWXxaWbpRCuTf0ScIF-3" edge="1">
          <mxGeometry relative="1" as="geometry">
            <mxPoint x="3090" y="630" as="targetPoint" />
            <Array as="points">
              <mxPoint x="2074" y="140" />
              <mxPoint x="3090" y="140" />
              <mxPoint x="3090" y="480" />
            </Array>
          </mxGeometry>
        </mxCell>
        <mxCell id="JWRfiAvGQwIAYVMvCTyz-24" style="rounded=0;orthogonalLoop=1;jettySize=auto;html=1;exitX=0.5;exitY=1;exitDx=0;exitDy=0;" edge="1" parent="1" source="3wbWXxaWbpRCuTf0ScIF-3">
          <mxGeometry relative="1" as="geometry">
            <mxPoint x="2550" y="440" as="targetPoint" />
          </mxGeometry>
        </mxCell>
        <mxCell id="JWRfiAvGQwIAYVMvCTyz-58" style="rounded=0;orthogonalLoop=1;jettySize=auto;html=1;exitX=0.5;exitY=1;exitDx=0;exitDy=0;" edge="1" parent="1" source="3wbWXxaWbpRCuTf0ScIF-3">
          <mxGeometry relative="1" as="geometry">
            <mxPoint x="1950" y="430" as="targetPoint" />
          </mxGeometry>
        </mxCell>
        <mxCell id="3wbWXxaWbpRCuTf0ScIF-3" value="&lt;span style=&quot;font-size: 24px;&quot;&gt;s1&lt;/span&gt;" style="ellipse;whiteSpace=wrap;html=1;aspect=fixed;labelBackgroundColor=default;" parent="1" vertex="1">
          <mxGeometry x="1980" y="185" width="110" height="110" as="geometry" />
        </mxCell>
        <mxCell id="3wbWXxaWbpRCuTf0ScIF-4" value="" style="shape=waypoint;sketch=0;fillStyle=solid;size=6;pointerEvents=1;points=[];fillColor=none;resizable=0;rotatable=0;perimeter=centerPerimeter;snapToPoint=1;strokeWidth=4;" parent="1" vertex="1">
          <mxGeometry x="2025" y="200" width="20" height="20" as="geometry" />
        </mxCell>
        <mxCell id="3wbWXxaWbpRCuTf0ScIF-5" value="&lt;font style=&quot;font-size: 15px;&quot;&gt;Описание:&lt;/font&gt;&lt;div style=&quot;font-size: 15px;&quot;&gt;&lt;span style=&quot;background-color: initial;&quot;&gt;&lt;font style=&quot;font-size: 15px;&quot;&gt;&lt;span style=&quot;white-space: pre;&quot;&gt;&#x9;&lt;/span&gt;&lt;span style=&quot;white-space: pre;&quot;&gt;&#x9;&lt;/span&gt;&lt;span style=&quot;white-space: pre;&quot;&gt;&#x9;&lt;/span&gt;- состояния (states):&lt;br&gt;&lt;span style=&quot;white-space: pre;&quot;&gt;&#x9;&lt;/span&gt;&lt;span style=&quot;white-space: pre;&quot;&gt;&#x9;&lt;/span&gt;&lt;span style=&quot;white-space: pre;&quot;&gt;&#x9;&lt;/span&gt;&lt;span style=&quot;white-space: pre;&quot;&gt;&#x9;&lt;/span&gt;&lt;span style=&quot;white-space-collapse: preserve;&quot;&gt;&amp;nbsp;    &lt;/span&gt;s1 - начальная страница&lt;/font&gt;&lt;/span&gt;&lt;/div&gt;&lt;div style=&quot;font-size: 15px;&quot;&gt;&lt;span style=&quot;background-color: initial;&quot;&gt;&lt;font style=&quot;font-size: 15px;&quot;&gt;&lt;span style=&quot;white-space: pre;&quot;&gt;&#x9;&lt;/span&gt;&lt;span style=&quot;white-space: pre;&quot;&gt;&#x9;&lt;/span&gt;&lt;span style=&quot;white-space: pre;&quot;&gt;&#x9;&lt;/span&gt;&lt;span style=&quot;white-space: pre;&quot;&gt;&#x9;&lt;span style=&quot;white-space: pre;&quot;&gt;&#x9;&lt;/span&gt;&lt;span style=&quot;white-space: pre;&quot;&gt;&#x9;&lt;/span&gt;&lt;/span&gt;s2 - форма создания продукта&lt;/font&gt;&lt;/span&gt;&lt;/div&gt;&lt;div style=&quot;font-size: 15px;&quot;&gt;&lt;span style=&quot;background-color: initial;&quot;&gt;&lt;font style=&quot;font-size: 15px;&quot;&gt;&lt;span style=&quot;white-space: pre;&quot;&gt;&#x9;&lt;/span&gt;&lt;span style=&quot;white-space: pre;&quot;&gt;&#x9;&lt;/span&gt;&lt;span style=&quot;white-space: pre;&quot;&gt;&#x9;&lt;/span&gt;&lt;span style=&quot;white-space: pre;&quot;&gt;&#x9;&lt;/span&gt;&lt;span style=&quot;white-space: pre;&quot;&gt;&#x9;&lt;/span&gt;&lt;span style=&quot;white-space: pre;&quot;&gt;&#x9;&lt;/span&gt;&amp;nbsp; &amp;nbsp;s3 - форма обновления продукта&lt;/font&gt;&lt;/span&gt;&lt;/div&gt;&lt;div style=&quot;font-size: 15px;&quot;&gt;&lt;span style=&quot;background-color: initial;&quot;&gt;&lt;font style=&quot;font-size: 15px;&quot;&gt;&lt;span style=&quot;white-space: pre;&quot;&gt;&#x9;&lt;/span&gt;&lt;span style=&quot;white-space: pre;&quot;&gt;&#x9;&lt;/span&gt;&lt;span style=&quot;white-space: pre;&quot;&gt;&#x9;&lt;/span&gt;- события (prompts):&lt;/font&gt;&lt;/span&gt;&lt;/div&gt;&lt;div style=&quot;font-size: 15px;&quot;&gt;&lt;span style=&quot;white-space: pre;&quot;&gt;&#x9;&lt;/span&gt;&lt;span style=&quot;white-space: pre;&quot;&gt;&#x9;&lt;/span&gt;&lt;span style=&quot;white-space: pre;&quot;&gt;&#x9;&lt;/span&gt;&lt;span style=&quot;white-space: pre;&quot;&gt;&#x9;&lt;/span&gt;&lt;span style=&quot;white-space: pre;&quot;&gt;&#x9;&lt;/span&gt;&lt;span style=&quot;white-space: pre;&quot;&gt;&#x9;&lt;/span&gt;р1 - нажатие кнопки Add Product&lt;span style=&quot;background-color: initial;&quot;&gt;&lt;font style=&quot;font-size: 15px;&quot;&gt;&lt;/font&gt;&lt;/span&gt;&lt;/div&gt;&lt;div style=&quot;font-size: 15px;&quot;&gt;&lt;span style=&quot;background-color: initial;&quot;&gt;&lt;font style=&quot;font-size: 15px;&quot;&gt;&lt;span style=&quot;white-space: pre;&quot;&gt;&#x9;&lt;/span&gt;&lt;span style=&quot;white-space: pre;&quot;&gt;&#x9;&lt;/span&gt;&lt;span style=&quot;white-space: pre;&quot;&gt;&#x9;&lt;/span&gt;&lt;span style=&quot;white-space: pre;&quot;&gt;&#x9;&lt;/span&gt;&lt;span style=&quot;white-space: pre;&quot;&gt;&#x9;&lt;span style=&quot;white-space: pre;&quot;&gt;&#x9;&lt;/span&gt;&lt;/span&gt;р2 - введены валидные данные&lt;br&gt;&lt;span style=&quot;white-space: pre;&quot;&gt;&#x9;&lt;/span&gt;&lt;span style=&quot;white-space: pre;&quot;&gt;&#x9;&lt;/span&gt;&lt;span style=&quot;white-space: pre;&quot;&gt;&#x9;&lt;/span&gt;&lt;span style=&quot;white-space: pre;&quot;&gt;&#x9;&lt;/span&gt;&lt;span style=&quot;white-space: pre;&quot;&gt;&#x9;&lt;/span&gt;&amp;nbsp;р3 - нажатие кнопки Update&lt;br&gt;&lt;span style=&quot;white-space: pre;&quot;&gt;&#x9;&lt;/span&gt;&lt;span style=&quot;white-space: pre;&quot;&gt;&#x9;&lt;/span&gt;&lt;span style=&quot;white-space: pre;&quot;&gt;&#x9;&lt;/span&gt;&lt;span style=&quot;white-space: pre;&quot;&gt;&#x9;&lt;span style=&quot;white-space: pre;&quot;&gt;&#x9;&lt;/span&gt;&lt;/span&gt;р4 - нажатие кнопки Delete&lt;br&gt;&lt;span style=&quot;white-space: pre;&quot;&gt;&#x9;&lt;/span&gt;&lt;span style=&quot;white-space: pre;&quot;&gt;&#x9;&lt;/span&gt;&lt;span style=&quot;white-space: pre;&quot;&gt;&#x9;&lt;/span&gt;&lt;span style=&quot;white-space: pre;&quot;&gt;&#x9;&lt;/span&gt;&lt;span style=&quot;white-space-collapse: preserve;&quot;&gt;&amp;nbsp;   &lt;/span&gt;р5 - нажатие кнопки Edit&lt;/font&gt;&lt;/span&gt;&lt;/div&gt;&lt;div style=&quot;font-size: 15px;&quot;&gt;&lt;span style=&quot;white-space: pre;&quot;&gt;&#x9;&lt;/span&gt;&lt;span style=&quot;white-space: pre;&quot;&gt;&#x9;&lt;/span&gt;&lt;span style=&quot;white-space: pre;&quot;&gt;&#x9;&lt;/span&gt;&lt;span style=&quot;white-space: pre;&quot;&gt;&#x9;&lt;/span&gt;&amp;nbsp; &amp;nbsp;p6 - нажатие кнопки Add&lt;/div&gt;&lt;div style=&quot;font-size: 15px;&quot;&gt;&lt;span style=&quot;background-color: initial;&quot;&gt;&lt;font style=&quot;font-size: 15px;&quot;&gt;&lt;br&gt;&lt;br&gt;&lt;/font&gt;&lt;/span&gt;&lt;div&gt;&lt;br&gt;&lt;/div&gt;&lt;/div&gt;" style="text;html=1;align=center;verticalAlign=middle;resizable=0;points=[];autosize=1;strokeColor=none;fillColor=none;" parent="1" vertex="1">
          <mxGeometry x="2400" y="-120" width="470" height="280" as="geometry" />
        </mxCell>
        <mxCell id="3wbWXxaWbpRCuTf0ScIF-8" value="&lt;span style=&quot;font-size: 24px;&quot;&gt;p1&lt;/span&gt;" style="ellipse;whiteSpace=wrap;html=1;aspect=fixed;labelBackgroundColor=default;" parent="1" vertex="1">
          <mxGeometry x="2150" y="185" width="110" height="110" as="geometry" />
        </mxCell>
        <mxCell id="3wbWXxaWbpRCuTf0ScIF-20" value="" style="endArrow=none;html=1;rounded=0;fontSize=29;fontStyle=0;spacing=4;strokeWidth=4;" parent="1" edge="1">
          <mxGeometry width="50" height="50" relative="1" as="geometry">
            <mxPoint x="2060" y="430" as="sourcePoint" />
            <mxPoint x="2130" y="430" as="targetPoint" />
          </mxGeometry>
        </mxCell>
        <mxCell id="3wbWXxaWbpRCuTf0ScIF-27" value="" style="endArrow=classic;html=1;rounded=0;exitX=0.5;exitY=1;exitDx=0;exitDy=0;" parent="1" source="3wbWXxaWbpRCuTf0ScIF-3" edge="1">
          <mxGeometry width="50" height="50" relative="1" as="geometry">
            <mxPoint x="2340" y="220" as="sourcePoint" />
            <mxPoint x="2080" y="430" as="targetPoint" />
          </mxGeometry>
        </mxCell>
        <mxCell id="3wbWXxaWbpRCuTf0ScIF-28" value="" style="endArrow=classic;html=1;rounded=0;exitX=0.5;exitY=1;exitDx=0;exitDy=0;" parent="1" source="3wbWXxaWbpRCuTf0ScIF-8" edge="1">
          <mxGeometry width="50" height="50" relative="1" as="geometry">
            <mxPoint x="2230" y="380" as="sourcePoint" />
            <mxPoint x="2110" y="430" as="targetPoint" />
          </mxGeometry>
        </mxCell>
        <mxCell id="3wbWXxaWbpRCuTf0ScIF-58" value="Легенда:" style="text;html=1;align=center;verticalAlign=middle;resizable=0;points=[];autosize=1;strokeColor=none;fillColor=none;" parent="1" vertex="1">
          <mxGeometry x="2150" y="-100" width="70" height="30" as="geometry" />
        </mxCell>
        <mxCell id="3wbWXxaWbpRCuTf0ScIF-59" value="" style="triangle;whiteSpace=wrap;html=1;direction=south;fillColor=#191919;fontColor=#333333;strokeColor=#666666;" parent="1" vertex="1">
          <mxGeometry x="2170" y="-60" width="10" height="15" as="geometry" />
        </mxCell>
        <mxCell id="3wbWXxaWbpRCuTf0ScIF-60" value="начало процесса" style="text;html=1;align=center;verticalAlign=middle;resizable=0;points=[];autosize=1;strokeColor=none;fillColor=none;" parent="1" vertex="1">
          <mxGeometry x="2200" y="-67.5" width="120" height="30" as="geometry" />
        </mxCell>
        <mxCell id="3wbWXxaWbpRCuTf0ScIF-63" value="" style="shape=waypoint;sketch=0;fillStyle=solid;size=6;pointerEvents=1;points=[];fillColor=none;resizable=0;rotatable=0;perimeter=centerPerimeter;snapToPoint=1;strokeWidth=4;" parent="1" vertex="1">
          <mxGeometry x="2165" y="-32.5" width="20" height="20" as="geometry" />
        </mxCell>
        <mxCell id="3wbWXxaWbpRCuTf0ScIF-64" value="устойчивое состояние" style="text;html=1;align=center;verticalAlign=middle;resizable=0;points=[];autosize=1;strokeColor=none;fillColor=none;" parent="1" vertex="1">
          <mxGeometry x="2200" y="-37.5" width="150" height="30" as="geometry" />
        </mxCell>
        <mxCell id="3wbWXxaWbpRCuTf0ScIF-65" value="" style="shape=waypoint;sketch=0;fillStyle=solid;size=6;pointerEvents=1;points=[];fillColor=none;resizable=0;rotatable=0;perimeter=centerPerimeter;snapToPoint=1;strokeWidth=4;" parent="1" vertex="1">
          <mxGeometry x="2380" y="-65" width="20" height="20" as="geometry" />
        </mxCell>
        <mxCell id="3wbWXxaWbpRCuTf0ScIF-66" value="" style="shape=waypoint;sketch=0;fillStyle=solid;size=6;pointerEvents=1;points=[];fillColor=none;resizable=0;rotatable=0;perimeter=centerPerimeter;snapToPoint=1;strokeWidth=4;" parent="1" vertex="1">
          <mxGeometry x="2400" y="-65" width="20" height="20" as="geometry" />
        </mxCell>
        <mxCell id="3wbWXxaWbpRCuTf0ScIF-67" value="измененное состояние" style="text;html=1;align=center;verticalAlign=middle;resizable=0;points=[];autosize=1;strokeColor=none;fillColor=none;" parent="1" vertex="1">
          <mxGeometry x="2430" y="-70" width="150" height="30" as="geometry" />
        </mxCell>
        <mxCell id="3wbWXxaWbpRCuTf0ScIF-76" value="" style="shape=waypoint;sketch=0;fillStyle=solid;size=6;pointerEvents=1;points=[];fillColor=none;resizable=0;rotatable=0;perimeter=centerPerimeter;snapToPoint=1;strokeWidth=4;" parent="1" vertex="1">
          <mxGeometry x="2080" y="115" width="20" height="20" as="geometry" />
        </mxCell>
        <mxCell id="3wbWXxaWbpRCuTf0ScIF-77" value="" style="shape=waypoint;sketch=0;fillStyle=solid;size=6;pointerEvents=1;points=[];fillColor=none;resizable=0;rotatable=0;perimeter=centerPerimeter;snapToPoint=1;strokeWidth=4;" parent="1" vertex="1">
          <mxGeometry x="2100" y="115" width="20" height="20" as="geometry" />
        </mxCell>
        <mxCell id="3wbWXxaWbpRCuTf0ScIF-97" style="rounded=0;orthogonalLoop=1;jettySize=auto;html=1;exitX=0.5;exitY=1;exitDx=0;exitDy=0;" parent="1" source="3wbWXxaWbpRCuTf0ScIF-79" edge="1">
          <mxGeometry relative="1" as="geometry">
            <mxPoint x="2580" y="440" as="targetPoint" />
          </mxGeometry>
        </mxCell>
        <mxCell id="3wbWXxaWbpRCuTf0ScIF-79" value="&lt;span style=&quot;font-size: 24px;&quot;&gt;p5&lt;/span&gt;" style="ellipse;whiteSpace=wrap;html=1;aspect=fixed;labelBackgroundColor=default;" parent="1" vertex="1">
          <mxGeometry x="2310" y="185" width="110" height="110" as="geometry" />
        </mxCell>
        <mxCell id="3wbWXxaWbpRCuTf0ScIF-80" value="" style="endArrow=none;html=1;rounded=0;fontSize=29;fontStyle=0;spacing=4;strokeWidth=4;" parent="1" edge="1">
          <mxGeometry width="50" height="50" relative="1" as="geometry">
            <mxPoint x="2530" y="440" as="sourcePoint" />
            <mxPoint x="2600" y="440" as="targetPoint" />
          </mxGeometry>
        </mxCell>
        <mxCell id="JWRfiAvGQwIAYVMvCTyz-2" style="edgeStyle=orthogonalEdgeStyle;rounded=0;orthogonalLoop=1;jettySize=auto;html=1;exitX=0.5;exitY=0;exitDx=0;exitDy=0;startArrow=classic;startFill=1;endArrow=none;endFill=0;" edge="1" parent="1" source="JWRfiAvGQwIAYVMvCTyz-1">
          <mxGeometry relative="1" as="geometry">
            <mxPoint x="2100" y="430" as="targetPoint" />
          </mxGeometry>
        </mxCell>
        <mxCell id="JWRfiAvGQwIAYVMvCTyz-9" style="rounded=0;orthogonalLoop=1;jettySize=auto;html=1;exitX=0.5;exitY=1;exitDx=0;exitDy=0;" edge="1" parent="1" source="JWRfiAvGQwIAYVMvCTyz-1">
          <mxGeometry relative="1" as="geometry">
            <mxPoint x="2200" y="790" as="targetPoint" />
          </mxGeometry>
        </mxCell>
        <mxCell id="JWRfiAvGQwIAYVMvCTyz-16" style="rounded=0;orthogonalLoop=1;jettySize=auto;html=1;exitX=0.5;exitY=1;exitDx=0;exitDy=0;" edge="1" parent="1" source="JWRfiAvGQwIAYVMvCTyz-1">
          <mxGeometry relative="1" as="geometry">
            <mxPoint x="2040" y="790" as="targetPoint" />
          </mxGeometry>
        </mxCell>
        <mxCell id="JWRfiAvGQwIAYVMvCTyz-1" value="&lt;span style=&quot;font-size: 24px;&quot;&gt;s2&lt;/span&gt;" style="ellipse;whiteSpace=wrap;html=1;aspect=fixed;labelBackgroundColor=default;" vertex="1" parent="1">
          <mxGeometry x="2045" y="570" width="110" height="110" as="geometry" />
        </mxCell>
        <mxCell id="JWRfiAvGQwIAYVMvCTyz-3" value="" style="shape=waypoint;sketch=0;fillStyle=solid;size=6;pointerEvents=1;points=[];fillColor=none;resizable=0;rotatable=0;perimeter=centerPerimeter;snapToPoint=1;strokeWidth=4;" vertex="1" parent="1">
          <mxGeometry x="2090" y="585" width="20" height="20" as="geometry" />
        </mxCell>
        <mxCell id="JWRfiAvGQwIAYVMvCTyz-10" style="rounded=0;orthogonalLoop=1;jettySize=auto;html=1;exitX=0.5;exitY=1;exitDx=0;exitDy=0;" edge="1" parent="1" source="JWRfiAvGQwIAYVMvCTyz-6">
          <mxGeometry relative="1" as="geometry">
            <mxPoint x="2220" y="790" as="targetPoint" />
          </mxGeometry>
        </mxCell>
        <mxCell id="JWRfiAvGQwIAYVMvCTyz-17" style="rounded=0;orthogonalLoop=1;jettySize=auto;html=1;exitX=0.5;exitY=1;exitDx=0;exitDy=0;" edge="1" parent="1" source="JWRfiAvGQwIAYVMvCTyz-6">
          <mxGeometry relative="1" as="geometry">
            <mxPoint x="2030" y="790" as="targetPoint" />
          </mxGeometry>
        </mxCell>
        <mxCell id="JWRfiAvGQwIAYVMvCTyz-6" value="&lt;span style=&quot;font-size: 24px;&quot;&gt;p6&lt;/span&gt;" style="ellipse;whiteSpace=wrap;html=1;aspect=fixed;labelBackgroundColor=default;" vertex="1" parent="1">
          <mxGeometry x="1870" y="570" width="110" height="110" as="geometry" />
        </mxCell>
        <mxCell id="JWRfiAvGQwIAYVMvCTyz-7" value="" style="endArrow=none;html=1;rounded=0;fontSize=29;fontStyle=0;spacing=4;strokeWidth=4;" edge="1" parent="1">
          <mxGeometry width="50" height="50" relative="1" as="geometry">
            <mxPoint x="2180" y="790" as="sourcePoint" />
            <mxPoint x="2250" y="790" as="targetPoint" />
          </mxGeometry>
        </mxCell>
        <mxCell id="JWRfiAvGQwIAYVMvCTyz-15" style="rounded=0;orthogonalLoop=1;jettySize=auto;html=1;exitX=0.5;exitY=1;exitDx=0;exitDy=0;" edge="1" parent="1" source="JWRfiAvGQwIAYVMvCTyz-11">
          <mxGeometry relative="1" as="geometry">
            <mxPoint x="2010" y="790" as="targetPoint" />
          </mxGeometry>
        </mxCell>
        <mxCell id="JWRfiAvGQwIAYVMvCTyz-11" value="&lt;span style=&quot;font-size: 24px;&quot;&gt;p2&lt;/span&gt;" style="ellipse;whiteSpace=wrap;html=1;aspect=fixed;labelBackgroundColor=default;" vertex="1" parent="1">
          <mxGeometry x="2205" y="570" width="110" height="110" as="geometry" />
        </mxCell>
        <mxCell id="JWRfiAvGQwIAYVMvCTyz-12" value="" style="endArrow=none;html=1;rounded=0;fontSize=29;fontStyle=0;spacing=4;strokeWidth=4;" edge="1" parent="1">
          <mxGeometry width="50" height="50" relative="1" as="geometry">
            <mxPoint x="2230" y="604" as="sourcePoint" />
            <mxPoint x="2290" y="604" as="targetPoint" />
          </mxGeometry>
        </mxCell>
        <mxCell id="JWRfiAvGQwIAYVMvCTyz-14" value="" style="endArrow=none;html=1;rounded=0;fontSize=29;fontStyle=0;spacing=4;strokeWidth=4;" edge="1" parent="1">
          <mxGeometry width="50" height="50" relative="1" as="geometry">
            <mxPoint x="1990" y="790" as="sourcePoint" />
            <mxPoint x="2060" y="790" as="targetPoint" />
          </mxGeometry>
        </mxCell>
        <mxCell id="JWRfiAvGQwIAYVMvCTyz-19" value="" style="endArrow=classic;html=1;rounded=0;entryX=0;entryY=0;entryDx=0;entryDy=0;" edge="1" parent="1" target="JWRfiAvGQwIAYVMvCTyz-1">
          <mxGeometry width="50" height="50" relative="1" as="geometry">
            <mxPoint x="2030" y="790" as="sourcePoint" />
            <mxPoint x="2030" y="860" as="targetPoint" />
            <Array as="points">
              <mxPoint x="2030" y="840" />
              <mxPoint x="1760" y="840" />
              <mxPoint x="1760" y="520" />
              <mxPoint x="2061" y="520" />
            </Array>
          </mxGeometry>
        </mxCell>
        <mxCell id="JWRfiAvGQwIAYVMvCTyz-20" value="" style="shape=waypoint;sketch=0;fillStyle=solid;size=6;pointerEvents=1;points=[];fillColor=none;resizable=0;rotatable=0;perimeter=centerPerimeter;snapToPoint=1;strokeWidth=4;" vertex="1" parent="1">
          <mxGeometry x="2040" y="500" width="20" height="20" as="geometry" />
        </mxCell>
        <mxCell id="JWRfiAvGQwIAYVMvCTyz-21" value="" style="shape=waypoint;sketch=0;fillStyle=solid;size=6;pointerEvents=1;points=[];fillColor=none;resizable=0;rotatable=0;perimeter=centerPerimeter;snapToPoint=1;strokeWidth=4;" vertex="1" parent="1">
          <mxGeometry x="2060" y="500" width="20" height="20" as="geometry" />
        </mxCell>
        <mxCell id="JWRfiAvGQwIAYVMvCTyz-23" value="" style="endArrow=none;html=1;rounded=0;" edge="1" parent="1">
          <mxGeometry width="50" height="50" relative="1" as="geometry">
            <mxPoint x="2220" y="790" as="sourcePoint" />
            <mxPoint x="3090" y="490" as="targetPoint" />
            <Array as="points">
              <mxPoint x="2220" y="840" />
              <mxPoint x="2220" y="950" />
              <mxPoint x="3090" y="950" />
              <mxPoint x="3090" y="830" />
            </Array>
          </mxGeometry>
        </mxCell>
        <mxCell id="JWRfiAvGQwIAYVMvCTyz-47" style="rounded=0;orthogonalLoop=1;jettySize=auto;html=1;exitX=0.5;exitY=1;exitDx=0;exitDy=0;" edge="1" parent="1" source="JWRfiAvGQwIAYVMvCTyz-29">
          <mxGeometry relative="1" as="geometry">
            <mxPoint x="2230" y="790" as="targetPoint" />
          </mxGeometry>
        </mxCell>
        <mxCell id="JWRfiAvGQwIAYVMvCTyz-50" style="edgeStyle=orthogonalEdgeStyle;rounded=0;orthogonalLoop=1;jettySize=auto;html=1;exitX=0.5;exitY=1;exitDx=0;exitDy=0;" edge="1" parent="1" source="JWRfiAvGQwIAYVMvCTyz-29">
          <mxGeometry relative="1" as="geometry">
            <mxPoint x="2565" y="790" as="targetPoint" />
          </mxGeometry>
        </mxCell>
        <mxCell id="JWRfiAvGQwIAYVMvCTyz-29" value="&lt;span style=&quot;font-size: 24px;&quot;&gt;s3&lt;/span&gt;" style="ellipse;whiteSpace=wrap;html=1;aspect=fixed;labelBackgroundColor=default;" vertex="1" parent="1">
          <mxGeometry x="2510" y="570" width="110" height="110" as="geometry" />
        </mxCell>
        <mxCell id="JWRfiAvGQwIAYVMvCTyz-30" value="" style="shape=waypoint;sketch=0;fillStyle=solid;size=6;pointerEvents=1;points=[];fillColor=none;resizable=0;rotatable=0;perimeter=centerPerimeter;snapToPoint=1;strokeWidth=4;" vertex="1" parent="1">
          <mxGeometry x="2560" y="585" width="20" height="20" as="geometry" />
        </mxCell>
        <mxCell id="JWRfiAvGQwIAYVMvCTyz-40" value="" style="endArrow=classic;html=1;rounded=0;entryX=0.5;entryY=0;entryDx=0;entryDy=0;" edge="1" parent="1" target="JWRfiAvGQwIAYVMvCTyz-29">
          <mxGeometry width="50" height="50" relative="1" as="geometry">
            <mxPoint x="2565" y="440" as="sourcePoint" />
            <mxPoint x="2640" y="510" as="targetPoint" />
          </mxGeometry>
        </mxCell>
        <mxCell id="JWRfiAvGQwIAYVMvCTyz-48" style="rounded=0;orthogonalLoop=1;jettySize=auto;html=1;exitX=0.5;exitY=1;exitDx=0;exitDy=0;" edge="1" parent="1" source="JWRfiAvGQwIAYVMvCTyz-43">
          <mxGeometry relative="1" as="geometry">
            <mxPoint x="2230" y="790" as="targetPoint" />
          </mxGeometry>
        </mxCell>
        <mxCell id="JWRfiAvGQwIAYVMvCTyz-49" style="rounded=0;orthogonalLoop=1;jettySize=auto;html=1;exitX=0.5;exitY=1;exitDx=0;exitDy=0;" edge="1" parent="1" source="JWRfiAvGQwIAYVMvCTyz-43">
          <mxGeometry relative="1" as="geometry">
            <mxPoint x="2580" y="790" as="targetPoint" />
          </mxGeometry>
        </mxCell>
        <mxCell id="JWRfiAvGQwIAYVMvCTyz-43" value="&lt;span style=&quot;font-size: 24px;&quot;&gt;p3&lt;/span&gt;" style="ellipse;whiteSpace=wrap;html=1;aspect=fixed;labelBackgroundColor=default;" vertex="1" parent="1">
          <mxGeometry x="2680" y="570" width="110" height="110" as="geometry" />
        </mxCell>
        <mxCell id="JWRfiAvGQwIAYVMvCTyz-45" style="rounded=0;orthogonalLoop=1;jettySize=auto;html=1;exitX=0.5;exitY=1;exitDx=0;exitDy=0;" edge="1" parent="1" source="JWRfiAvGQwIAYVMvCTyz-44">
          <mxGeometry relative="1" as="geometry">
            <mxPoint x="2230" y="790" as="targetPoint" />
          </mxGeometry>
        </mxCell>
        <mxCell id="JWRfiAvGQwIAYVMvCTyz-44" value="&lt;span style=&quot;font-size: 24px;&quot;&gt;p2&lt;/span&gt;" style="ellipse;whiteSpace=wrap;html=1;aspect=fixed;labelBackgroundColor=default;" vertex="1" parent="1">
          <mxGeometry x="2355" y="570" width="110" height="110" as="geometry" />
        </mxCell>
        <mxCell id="JWRfiAvGQwIAYVMvCTyz-46" value="" style="endArrow=none;html=1;rounded=0;fontSize=29;fontStyle=0;spacing=4;strokeWidth=4;" edge="1" parent="1">
          <mxGeometry width="50" height="50" relative="1" as="geometry">
            <mxPoint x="2530" y="790" as="sourcePoint" />
            <mxPoint x="2600" y="790" as="targetPoint" />
          </mxGeometry>
        </mxCell>
        <mxCell id="JWRfiAvGQwIAYVMvCTyz-51" value="" style="endArrow=classic;html=1;rounded=0;entryX=1;entryY=0;entryDx=0;entryDy=0;" edge="1" parent="1" target="JWRfiAvGQwIAYVMvCTyz-29">
          <mxGeometry width="50" height="50" relative="1" as="geometry">
            <mxPoint x="2565" y="790" as="sourcePoint" />
            <mxPoint x="2480" y="630" as="targetPoint" />
            <Array as="points">
              <mxPoint x="2565" y="880" />
              <mxPoint x="2880" y="880" />
              <mxPoint x="2880" y="540" />
              <mxPoint x="2604" y="540" />
            </Array>
          </mxGeometry>
        </mxCell>
        <mxCell id="JWRfiAvGQwIAYVMvCTyz-52" value="" style="shape=waypoint;sketch=0;fillStyle=solid;size=6;pointerEvents=1;points=[];fillColor=none;resizable=0;rotatable=0;perimeter=centerPerimeter;snapToPoint=1;strokeWidth=4;" vertex="1" parent="1">
          <mxGeometry x="2600" y="520" width="20" height="20" as="geometry" />
        </mxCell>
        <mxCell id="JWRfiAvGQwIAYVMvCTyz-53" value="" style="shape=waypoint;sketch=0;fillStyle=solid;size=6;pointerEvents=1;points=[];fillColor=none;resizable=0;rotatable=0;perimeter=centerPerimeter;snapToPoint=1;strokeWidth=4;" vertex="1" parent="1">
          <mxGeometry x="2620" y="520" width="20" height="20" as="geometry" />
        </mxCell>
        <mxCell id="JWRfiAvGQwIAYVMvCTyz-57" style="rounded=0;orthogonalLoop=1;jettySize=auto;html=1;exitX=0.5;exitY=1;exitDx=0;exitDy=0;" edge="1" parent="1" source="JWRfiAvGQwIAYVMvCTyz-54">
          <mxGeometry relative="1" as="geometry">
            <mxPoint x="1920" y="430" as="targetPoint" />
          </mxGeometry>
        </mxCell>
        <mxCell id="JWRfiAvGQwIAYVMvCTyz-54" value="&lt;span style=&quot;font-size: 24px;&quot;&gt;p4&lt;/span&gt;" style="ellipse;whiteSpace=wrap;html=1;aspect=fixed;labelBackgroundColor=default;" vertex="1" parent="1">
          <mxGeometry x="1800" y="185" width="110" height="110" as="geometry" />
        </mxCell>
        <mxCell id="JWRfiAvGQwIAYVMvCTyz-56" value="" style="endArrow=none;html=1;rounded=0;fontSize=29;fontStyle=0;spacing=4;strokeWidth=4;" edge="1" parent="1">
          <mxGeometry width="50" height="50" relative="1" as="geometry">
            <mxPoint x="1900" y="430" as="sourcePoint" />
            <mxPoint x="1970" y="430" as="targetPoint" />
          </mxGeometry>
        </mxCell>
        <mxCell id="JWRfiAvGQwIAYVMvCTyz-59" value="" style="endArrow=classic;html=1;rounded=0;entryX=0;entryY=0;entryDx=0;entryDy=0;" edge="1" parent="1" target="3wbWXxaWbpRCuTf0ScIF-3">
          <mxGeometry width="50" height="50" relative="1" as="geometry">
            <mxPoint x="1930" y="430" as="sourcePoint" />
            <mxPoint x="2320" y="360" as="targetPoint" />
            <Array as="points">
              <mxPoint x="1930" y="470" />
              <mxPoint x="1760" y="470" />
              <mxPoint x="1760" y="140" />
              <mxPoint x="1996" y="140" />
            </Array>
          </mxGeometry>
        </mxCell>
        <mxCell id="JWRfiAvGQwIAYVMvCTyz-60" value="" style="shape=waypoint;sketch=0;fillStyle=solid;size=6;pointerEvents=1;points=[];fillColor=none;resizable=0;rotatable=0;perimeter=centerPerimeter;snapToPoint=1;strokeWidth=4;" vertex="1" parent="1">
          <mxGeometry x="1940" y="115" width="20" height="20" as="geometry" />
        </mxCell>
        <mxCell id="JWRfiAvGQwIAYVMvCTyz-61" value="" style="shape=waypoint;sketch=0;fillStyle=solid;size=6;pointerEvents=1;points=[];fillColor=none;resizable=0;rotatable=0;perimeter=centerPerimeter;snapToPoint=1;strokeWidth=4;" vertex="1" parent="1">
          <mxGeometry x="1960" y="115" width="20" height="20" as="geometry" />
        </mxCell>
      </root>
    </mxGraphModel>
  </diagram>
</mxfile>
